<svg width="16" height="16" viewBox="0 0 16 16" fill="#1BA8DF" xmlns="http://www.w3.org/2000/svg">
<path d="M11.9987 8.66732H8.66536V12.0007C8.66536 12.3673 8.36536 12.6673 7.9987 12.6673C7.63203 12.6673 7.33203 12.3673 7.33203 12.0007V8.66732H3.9987C3.63203 8.66732 3.33203 8.36732 3.33203 8.00065C3.33203 7.63398 3.63203 7.33398 3.9987 7.33398H7.33203V4.00065C7.33203 3.63398 7.63203 3.33398 7.9987 3.33398C8.36536 3.33398 8.66536 3.63398 8.66536 4.00065V7.33398H11.9987C12.3654 7.33398 12.6654 7.63398 12.6654 8.00065C12.6654 8.36732 12.3654 8.66732 11.9987 8.66732Z"/>
</svg>
