<svg width="16" height="16" viewBox="0 0 16 16" fill="none" xmlns="http://www.w3.org/2000/svg">
<path fill-rule="evenodd" clip-rule="evenodd" d="M14 2.66536C14 1.92898 13.403 1.33203 12.6667 1.33203H3.33333C2.59695 1.33203 2 1.92898 2 2.66536V6.66536V13.332C2 14.0684 2.59695 14.6654 3.33333 14.6654H10.6667C11.0349 14.6654 11.3333 14.3669 11.3333 13.9987C11.3333 13.6305 11.0349 13.332 10.6667 13.332H3.33333V7.33203H13.3333C13.7015 7.33203 14 7.03356 14 6.66537V2.66536ZM12.6667 5.9987V2.66536H3.33333V5.9987H12.6667ZM4.66667 3.33203C4.29848 3.33203 4 3.63051 4 3.9987C4 4.36689 4.29848 4.66536 4.66667 4.66536H6C6.36819 4.66536 6.66667 4.36689 6.66667 3.9987C6.66667 3.63051 6.36819 3.33203 6 3.33203H4.66667ZM4 9.33203C4 8.96384 4.29848 8.66536 4.66667 8.66536H6C6.36819 8.66536 6.66667 8.96384 6.66667 9.33203C6.66667 9.70022 6.36819 9.9987 6 9.9987H4.66667C4.29848 9.9987 4 9.70022 4 9.33203ZM12.6667 11.332C12.6667 10.9638 12.9651 10.6654 13.3333 10.6654C13.7015 10.6654 14 10.9638 14 11.332V13.9987C14 14.3669 13.7015 14.6654 13.3333 14.6654C12.9651 14.6654 12.6667 14.3669 12.6667 13.9987V11.332ZM13.3333 8.66536C12.9651 8.66536 12.6667 8.96384 12.6667 9.33203C12.6667 9.70022 12.9651 9.9987 13.3333 9.9987C13.7015 9.9987 14 9.70022 14 9.33203C14 8.96384 13.7015 8.66536 13.3333 8.66536Z" fill="url(#paint0_linear_25637_19221)"/>
<defs>
<linearGradient id="paint0_linear_25637_19221" x1="-4" y1="7.9987" x2="9.25967" y2="19.9324" gradientUnits="userSpaceOnUse">
<stop stop-color="#116D83"/>
<stop offset="1" stop-color="#073B4C"/>
</linearGradient>
</defs>
</svg>
