<svg width="20" height="20" viewBox="0 0 20 20" fill="none" stroke="currentColor" xmlns="http://www.w3.org/2000/svg">
<path d="M11.6679 17.4974H8.33461M15.0013 6.66406C15.0013 5.33798 14.4745 4.06621 13.5368 3.12853C12.5991 2.19085 11.3274 1.66406 10.0013 1.66406C8.67519 1.66406 7.40342 2.19085 6.46574 3.12853C5.52806 4.06621 5.00128 5.33798 5.00128 6.66406C5.00128 9.23922 4.35167 11.0024 3.626 12.1686C3.01388 13.1523 2.70783 13.6442 2.71905 13.7814C2.73147 13.9333 2.76366 13.9912 2.88609 14.082C2.99666 14.1641 3.4951 14.1641 4.49199 14.1641H15.5106C16.5075 14.1641 17.0059 14.1641 17.1165 14.082C17.2389 13.9912 17.2711 13.9333 17.2835 13.7814C17.2947 13.6442 16.9887 13.1523 16.3766 12.1686C15.6509 11.0024 15.0013 9.23922 15.0013 6.66406Z" stroke-width="1.66667" stroke-linecap="round" stroke-linejoin="round"/>
</svg>
