<svg width="16" height="16" viewBox="0 0 16 16" fill="none" xmlns="http://www.w3.org/2000/svg">
<path d="M13.3327 12.6654V10.6654H4.66602C3.56145 10.6654 2.66602 11.5608 2.66602 12.6654M5.86602 14.6654H11.1993C11.9461 14.6654 12.3195 14.6654 12.6047 14.52C12.8556 14.3922 13.0595 14.1882 13.1874 13.9374C13.3327 13.6521 13.3327 13.2788 13.3327 12.532V3.46536C13.3327 2.71863 13.3327 2.34526 13.1874 2.06004C13.0595 1.80916 12.8556 1.60519 12.6047 1.47736C12.3195 1.33203 11.9461 1.33203 11.1993 1.33203H5.86602C4.74591 1.33203 4.18586 1.33203 3.75803 1.55002C3.38171 1.74176 3.07575 2.04773 2.884 2.42405C2.66602 2.85187 2.66602 3.41193 2.66602 4.53203V11.4654C2.66602 12.5855 2.66602 13.1455 2.884 13.5733C3.07575 13.9497 3.38171 14.2556 3.75803 14.4474C4.18586 14.6654 4.74591 14.6654 5.86602 14.6654Z" stroke="#680771" stroke-width="2" stroke-linecap="round" stroke-linejoin="round"/>
</svg>
