<svg width="16" height="16" viewBox="0 0 16 16" fill="none" xmlns="http://www.w3.org/2000/svg">
<path d="M13.3346 12.6663V10.6663H4.66797C3.5634 10.6663 2.66797 11.5618 2.66797 12.6663M5.86797 14.6663H11.2013C11.948 14.6663 12.3214 14.6663 12.6066 14.521C12.8575 14.3932 13.0615 14.1892 13.1893 13.9383C13.3346 13.6531 13.3346 13.2797 13.3346 12.533V3.46634C13.3346 2.7196 13.3346 2.34624 13.1893 2.06102C13.0615 1.81014 12.8575 1.60616 12.6066 1.47833C12.3214 1.33301 11.948 1.33301 11.2013 1.33301H5.86797C4.74786 1.33301 4.18781 1.33301 3.75999 1.55099C3.38366 1.74274 3.0777 2.0487 2.88596 2.42503C2.66797 2.85285 2.66797 3.4129 2.66797 4.53301V11.4663C2.66797 12.5864 2.66797 13.1465 2.88596 13.5743C3.0777 13.9506 3.38366 14.2566 3.75999 14.4484C4.18781 14.6663 4.74786 14.6663 5.86797 14.6663Z" stroke="#004990" stroke-width="2" stroke-linecap="round" stroke-linejoin="round"/>
</svg>
