<svg width="16" height="16" viewBox="0 0 16 16" fill="none" xmlns="http://www.w3.org/2000/svg">
<g clip-path="url(#clip0_25637_19223)">
<path d="M6 1.33334C7.04274 1.33334 7.94569 1.93184 8.38409 2.80405L8.34608 2.8153C8.65805 2.7187 8.98962 2.66668 9.33333 2.66668C11.1743 2.66668 12.6667 4.15906 12.6667 6.00001C12.6667 6.61366 12.5008 7.18858 12.2116 7.68241L12.1353 7.8063C13.2485 8.43525 14 9.62987 14 11V13.3333C14 14.0697 13.403 14.6667 12.6667 14.6667H6C5.26362 14.6667 4.66667 14.0697 4.66667 13.3333V11L4.67155 10.809L4.68162 10.6667L3.33333 10.6667C2.59695 10.6667 2 10.0697 2 9.33334V7.66668C2 6.53755 2.62379 5.55412 3.54555 5.0422L3.51283 4.96382C3.39691 4.66489 3.33333 4.33988 3.33333 4.00001C3.33333 2.52725 4.52724 1.33334 6 1.33334ZM7.69405 8.90307L7.53577 8.80761C6.67782 9.11875 6.05496 9.91941 6.00345 10.872L6 11V13.3333H12.6667V11C12.6667 9.99165 12.027 9.13268 11.1314 8.80671C10.613 9.14013 9.99574 9.33334 9.33333 9.33334C8.73746 9.33334 8.1781 9.17699 7.69405 8.90307ZM4.52746 6.22358L4.38312 6.12075C3.80009 6.35048 3.37938 6.90224 3.33688 7.55709L3.33333 7.66668V9.33334L5.0664 9.3335L5.07779 9.3114C5.40613 8.67966 5.91296 8.15555 6.53146 7.80589L6.4551 7.68241C6.30374 7.42403 6.18618 7.14345 6.10849 6.84674L6.0664 6.66531L6 6.66668C5.45566 6.66668 4.94941 6.50358 4.52746 6.22358ZM9.33333 4.00001C8.22876 4.00001 7.33333 4.89544 7.33333 6.00001C7.33333 7.10458 8.22876 8.00001 9.33333 8.00001C10.4379 8.00001 11.3333 7.10458 11.3333 6.00001C11.3333 4.89544 10.4379 4.00001 9.33333 4.00001ZM6 2.66668C5.26362 2.66668 4.66667 3.26363 4.66667 4.00001C4.66667 4.73639 5.26362 5.33334 6 5.33334L6.06742 5.32972L6.06301 5.3517C6.19949 4.65929 6.55039 4.04387 7.04368 3.57748L7.20518 3.43434C6.99441 2.98042 6.53385 2.66668 6 2.66668Z" fill="url(#paint0_linear_25637_19223)"/>
</g>
<defs>
<linearGradient id="paint0_linear_25637_19223" x1="3.14" y1="1.33334" x2="14.1197" y2="13.533" gradientUnits="userSpaceOnUse">
<stop stop-color="#116D83"/>
<stop offset="1" stop-color="#073B4C"/>
</linearGradient>
<clipPath id="clip0_25637_19223">
<rect width="16" height="16" fill="white"/>
</clipPath>
</defs>
</svg>
