<svg width="16" height="16" viewBox="0 0 16 16" fill="none" xmlns="http://www.w3.org/2000/svg">
<g clip-path="url(#clip0_21751_34809)">
<path d="M4.00004 10.0002L5.33337 11.3335L8.33337 8.3335M5.33337 5.3335V3.46683C5.33337 2.72009 5.33337 2.34672 5.4787 2.06151C5.60653 1.81063 5.8105 1.60665 6.06139 1.47882C6.3466 1.3335 6.71997 1.3335 7.46671 1.3335H12.5334C13.2801 1.3335 13.6535 1.3335 13.9387 1.47882C14.1896 1.60665 14.3936 1.81063 14.5214 2.06151C14.6667 2.34672 14.6667 2.72009 14.6667 3.46683V8.5335C14.6667 9.28023 14.6667 9.6536 14.5214 9.93882C14.3936 10.1897 14.1896 10.3937 13.9387 10.5215C13.6535 10.6668 13.2801 10.6668 12.5334 10.6668H10.6667M3.46671 14.6668H8.53337C9.28011 14.6668 9.65348 14.6668 9.93869 14.5215C10.1896 14.3937 10.3936 14.1897 10.5214 13.9388C10.6667 13.6536 10.6667 13.2802 10.6667 12.5335V7.46683C10.6667 6.72009 10.6667 6.34672 10.5214 6.06151C10.3936 5.81063 10.1896 5.60665 9.93869 5.47882C9.65348 5.3335 9.28011 5.3335 8.53337 5.3335H3.46671C2.71997 5.3335 2.3466 5.3335 2.06139 5.47882C1.8105 5.60665 1.60653 5.81063 1.4787 6.06151C1.33337 6.34672 1.33337 6.72009 1.33337 7.46683V12.5335C1.33337 13.2802 1.33337 13.6536 1.4787 13.9388C1.60653 14.1897 1.8105 14.3937 2.06139 14.5215C2.3466 14.6668 2.71997 14.6668 3.46671 14.6668Z" stroke="#15803D" stroke-width="1.67" stroke-linecap="round" stroke-linejoin="round"/>
</g>
<defs>
<clipPath id="clip0_21751_34809">
<rect width="16" height="16" fill="white"/>
</clipPath>
</defs>
</svg>
