<svg width="16" height="16" viewBox="0 0 16 16" fill="none" xmlns="http://www.w3.org/2000/svg">
<path fill-rule="evenodd" clip-rule="evenodd" d="M11.9987 1.33594C12.7351 1.33594 13.332 1.93289 13.332 2.66927V8.0026C13.332 8.37079 13.0336 8.66927 12.6654 8.66927C12.2972 8.66927 11.9987 8.37079 11.9987 8.0026V2.66927H2.66536V12.0026H7.9987C8.36689 12.0026 8.66536 12.3011 8.66536 12.6693C8.66536 13.0375 8.36689 13.3359 7.9987 13.3359H2.66536C1.92898 13.3359 1.33203 12.739 1.33203 12.0026V2.66927C1.33203 1.93289 1.92898 1.33594 2.66536 1.33594H11.9987ZM3.99854 4.66935C3.99854 4.30116 4.29701 4.00269 4.6652 4.00269H9.99854C10.3667 4.00269 10.6652 4.30116 10.6652 4.66935C10.6652 5.03754 10.3667 5.33602 9.99854 5.33602H4.6652C4.29701 5.33602 3.99854 5.03754 3.99854 4.66935ZM4.6652 6.66919C4.29701 6.66919 3.99854 6.96767 3.99854 7.33586C3.99854 7.70405 4.29701 8.00252 4.6652 8.00252H9.99854C10.3667 8.00252 10.6652 7.70405 10.6652 7.33586C10.6652 6.96767 10.3667 6.66919 9.99854 6.66919H4.6652ZM3.99854 10.0026C3.99854 9.63441 4.29701 9.33594 4.6652 9.33594H5.99853C6.36672 9.33594 6.6652 9.63441 6.6652 10.0026C6.6652 10.3708 6.36672 10.6693 5.99854 10.6693H4.6652C4.29701 10.6693 3.99854 10.3708 3.99854 10.0026ZM14.9078 11.1408C15.1682 10.8804 15.1682 10.4583 14.9078 10.1979C14.6475 9.9376 14.2254 9.9376 13.965 10.1979L12.5508 11.6122L11.1366 10.1979C10.8763 9.9376 10.4541 9.9376 10.1938 10.1979C9.93345 10.4583 9.93345 10.8804 10.1938 11.1408L11.608 12.555L10.1938 13.9692C9.93345 14.2295 9.93345 14.6516 10.1938 14.912C10.4541 15.1723 10.8763 15.1723 11.1366 14.912L12.5508 13.4978L13.965 14.912C14.2254 15.1723 14.6475 15.1723 14.9078 14.912C15.1682 14.6516 15.1682 14.2295 14.9078 13.9692L13.4936 12.555L14.9078 11.1408Z" fill="url(#paint0_linear_12829_16967)"/>
<defs>
<linearGradient id="paint0_linear_12829_16967" x1="-5.55351" y1="8.2216" x2="8.21781" y2="21.9927" gradientUnits="userSpaceOnUse">
<stop stop-color="#116D83"/>
<stop offset="1" stop-color="#073B4C"/>
</linearGradient>
</defs>
</svg>
