<svg width="16" height="16" viewBox="0 0 16 16" fill="none" xmlns="http://www.w3.org/2000/svg">
<path d="M8.0026 1.33325C4.3226 1.33325 1.33594 4.31992 1.33594 7.99992C1.33594 11.6799 4.3226 14.6666 8.0026 14.6666C11.6826 14.6666 14.6693 11.6799 14.6693 7.99992C14.6693 4.31992 11.6826 1.33325 8.0026 1.33325ZM8.0026 8.66659C7.63594 8.66659 7.33594 8.36659 7.33594 7.99992V5.33325C7.33594 4.96659 7.63594 4.66659 8.0026 4.66659C8.36927 4.66659 8.66927 4.96659 8.66927 5.33325V7.99992C8.66927 8.36659 8.36927 8.66659 8.0026 8.66659ZM8.66927 11.3333H7.33594V9.99992H8.66927V11.3333Z" fill="#DC2626"/>
</svg>
