<svg width="36" height="36" viewBox="0 0 36 36" fill="none" xmlns="http://www.w3.org/2000/svg">
<rect x="2" y="2" width="32" height="32" rx="16" fill="#E4E4E7"/>
<rect x="2" y="2" width="32" height="32" rx="16" stroke="#F4F4F5" stroke-width="4"/>
<path d="M18.0003 18.6663C18.3685 18.6663 18.667 18.3679 18.667 17.9997C18.667 17.6315 18.3685 17.333 18.0003 17.333C17.6321 17.333 17.3337 17.6315 17.3337 17.9997C17.3337 18.3679 17.6321 18.6663 18.0003 18.6663Z" stroke="#52525B" stroke-width="1.33333" stroke-linecap="round" stroke-linejoin="round"/>
<path d="M22.667 18.6663C23.0352 18.6663 23.3337 18.3679 23.3337 17.9997C23.3337 17.6315 23.0352 17.333 22.667 17.333C22.2988 17.333 22.0003 17.6315 22.0003 17.9997C22.0003 18.3679 22.2988 18.6663 22.667 18.6663Z" stroke="#52525B" stroke-width="1.33333" stroke-linecap="round" stroke-linejoin="round"/>
<path d="M13.3337 18.6663C13.7018 18.6663 14.0003 18.3679 14.0003 17.9997C14.0003 17.6315 13.7018 17.333 13.3337 17.333C12.9655 17.333 12.667 17.6315 12.667 17.9997C12.667 18.3679 12.9655 18.6663 13.3337 18.6663Z" stroke="#52525B" stroke-width="1.33333" stroke-linecap="round" stroke-linejoin="round"/>
</svg>
