<svg width="16" height="16" viewBox="0 0 16 16" fill="none" xmlns="http://www.w3.org/2000/svg">
<g clip-path="url(#clip0_25637_19222)">
<path fill-rule="evenodd" clip-rule="evenodd" d="M14.6666 2.66668C14.6666 1.9303 14.0697 1.33334 13.3333 1.33334H2.66665C1.93027 1.33334 1.33331 1.9303 1.33331 2.66668V13.3333C1.33331 14.0697 1.93027 14.6667 2.66665 14.6667H13.3333C14.0697 14.6667 14.6666 14.0697 14.6666 13.3333V2.66668ZM2.66665 2.66668H13.3333V13.3333H2.66665V2.66668ZM3.99998 4.66668C3.99998 4.29849 4.29846 4.00001 4.66665 4.00001H5.99998C6.36817 4.00001 6.66665 4.29849 6.66665 4.66668V6.00001C6.66665 6.3682 6.36817 6.66668 5.99998 6.66668H4.66665C4.29846 6.66668 3.99998 6.3682 3.99998 6.00001V4.66668ZM4.66665 8.00001C4.29846 8.00001 3.99998 8.29849 3.99998 8.66668C3.99998 9.03487 4.29846 9.33334 4.66665 9.33334H11.3333C11.7015 9.33334 12 9.03487 12 8.66668C12 8.29849 11.7015 8.00001 11.3333 8.00001H4.66665ZM7.99998 5.33334C7.99998 4.96515 8.29846 4.66668 8.66665 4.66668H11.3333C11.7015 4.66668 12 4.96515 12 5.33334C12 5.70153 11.7015 6.00001 11.3333 6.00001H8.66665C8.29846 6.00001 7.99998 5.70153 7.99998 5.33334ZM4.66665 10.6667C4.29846 10.6667 3.99998 10.9652 3.99998 11.3333C3.99998 11.7015 4.29846 12 4.66665 12H11.3333C11.7015 12 12 11.7015 12 11.3333C12 10.9652 11.7015 10.6667 11.3333 10.6667H4.66665Z" fill="url(#paint0_linear_25637_19222)"/>
</g>
<defs>
<linearGradient id="paint0_linear_25637_19222" x1="-5.33335" y1="8.00001" x2="7.99998" y2="21.3333" gradientUnits="userSpaceOnUse">
<stop stop-color="#116D83"/>
<stop offset="1" stop-color="#073B4C"/>
</linearGradient>
<clipPath id="clip0_25637_19222">
<rect width="16" height="16" fill="white"/>
</clipPath>
</defs>
</svg>
