<svg width="16" height="16" viewBox="0 0 16 16" fill="none" xmlns="http://www.w3.org/2000/svg">
<path fill-rule="evenodd" clip-rule="evenodd" d="M11.9987 1.33594C12.7351 1.33594 13.332 1.93289 13.332 2.66927V8.0026C13.332 8.37079 13.0336 8.66927 12.6654 8.66927C12.2972 8.66927 11.9987 8.37079 11.9987 8.0026V2.66927H2.66536V12.0026H5.33203C5.70022 12.0026 5.9987 12.3011 5.9987 12.6693C5.9987 13.0375 5.70022 13.3359 5.33203 13.3359H2.66536C1.92898 13.3359 1.33203 12.739 1.33203 12.0026V2.66927C1.33203 1.93289 1.92898 1.33594 2.66536 1.33594H11.9987ZM9.99854 4.00269C10.3667 4.00269 10.6652 4.30116 10.6652 4.66935C10.6652 5.03754 10.3667 5.33602 9.99854 5.33602H4.6652C4.29701 5.33602 3.99854 5.03754 3.99854 4.66935C3.99854 4.30116 4.29701 4.00269 4.6652 4.00269H9.99854ZM11.874 10.4377C11.8149 10.3902 11.7413 10.3643 11.6654 10.3643C11.4813 10.3643 11.332 10.5135 11.332 10.6976V12.0025H7.9987C7.63051 12.0025 7.33203 12.301 7.33203 12.6692C7.33203 13.0374 7.63051 13.3358 7.9987 13.3358H11.332V14.6438C11.332 14.7193 11.3577 14.7926 11.4047 14.8516C11.5195 14.9956 11.7292 15.0192 11.8731 14.9045L14.3395 12.9384C14.3588 12.9231 14.3763 12.9056 14.3917 12.8865C14.507 12.7429 14.484 12.5331 14.3405 12.4178L11.874 10.4377ZM9.99854 6.66919C10.3667 6.66919 10.6652 6.96767 10.6652 7.33586C10.6652 7.70405 10.3667 8.00252 9.99854 8.00252H4.6652C4.29701 8.00252 3.99854 7.70405 3.99854 7.33586C3.99854 6.96767 4.29701 6.66919 4.6652 6.66919H9.99854ZM7.33187 10.0026C7.33187 9.63441 7.03339 9.33594 6.6652 9.33594H4.6652C4.29701 9.33594 3.99854 9.63441 3.99854 10.0026C3.99854 10.3708 4.29701 10.6693 4.6652 10.6693H6.6652C7.03339 10.6693 7.33187 10.3708 7.33187 10.0026Z" fill="url(#paint0_linear_12829_17000)"/>
<defs>
<linearGradient id="paint0_linear_12829_17000" x1="-5.23451" y1="8.15656" x2="8.39691" y2="21.2802" gradientUnits="userSpaceOnUse">
<stop stop-color="#116D83"/>
<stop offset="1" stop-color="#073B4C"/>
</linearGradient>
</defs>
</svg>
