<svg width="24" height="24" viewBox="0 0 24 24" fill="none" xmlns="http://www.w3.org/2000/svg">
<path fill-rule="evenodd" clip-rule="evenodd" d="M7 2C5.34315 2 4 3.34315 4 5V7V8V21C4 21.5523 4.44772 22 5 22H19C19.5523 22 20 21.5523 20 21V7C20 6.44772 19.5523 6 19 6H7C6.44772 6 6 5.55228 6 5C6 4.44772 6.44772 4 7 4H17C17.5523 4 18 3.55228 18 3C18 2.44772 17.5523 2 17 2H7ZM6 10C6 9.44772 6.44772 9 7 9H17C17.5523 9 18 9.44772 18 10C18 10.5523 17.5523 11 17 11H7C6.44771 11 6 10.5523 6 10ZM6 14C6 13.4477 6.44772 13 7 13H13C13.5523 13 14 13.4477 14 14C14 14.5523 13.5523 15 13 15H7C6.44772 15 6 14.5523 6 14Z" fill="url(#paint0_linear_12829_17062)"/>
<defs>
<linearGradient id="paint0_linear_12829_17062" x1="4" y1="2" x2="20" y2="22" gradientUnits="userSpaceOnUse">
<stop stop-color="#8EBAF5"/>
<stop offset="1" stop-color="#2F80ED"/>
</linearGradient>
</defs>
</svg>
