<svg width="24" height="24" viewBox="0 0 24 24" fill="#073B4C" xmlns="http://www.w3.org/2000/svg">
<path fill-rule="evenodd" clip-rule="evenodd" d="M18 7C18 5.89543 17.1046 5 16 5H14C12.8954 5 12 5.89543 12 7H3C2.44772 7 2 7.44772 2 8C2 8.55228 2.44772 9 3 9H12C12 10.1046 12.8954 11 14 11H16C17.1046 11 18 10.1046 18 9H20.9043C21.4566 9 21.9043 8.55228 21.9043 8C21.9043 7.44772 21.4566 7 20.9043 7H18ZM14 7H16V9H14V7ZM6 17H3C2.44772 17 2 16.5523 2 16C2 15.4477 2.44772 15 3 15H6C6 13.8954 6.89543 13 8 13H10C11.1046 13 12 13.8954 12 15H20.9043C21.4566 15 21.9043 15.4477 21.9043 16C21.9043 16.5523 21.4566 17 20.9043 17H12C12 18.1046 11.1046 19 10 19H8C6.89543 19 6 18.1046 6 17ZM10 15H8V17H10V15Z"/>
</svg>
