<svg width="24" height="24" viewBox="0 0 24 24" fill="none" xmlns="http://www.w3.org/2000/svg">
<path d="M19.2271 15.2578L16.6871 14.9678C16.0771 14.8978 15.4771 15.1078 15.0471 15.5378L13.2071 17.3778C10.3771 15.9378 8.05711 13.6278 6.61711 10.7878L8.46711 8.93781C8.89711 8.50781 9.10711 7.90781 9.03711 7.29781L8.74711 4.77781C8.62711 3.76781 7.77711 3.00781 6.75711 3.00781H5.02711C3.89711 3.00781 2.95711 3.94781 3.02711 5.07781C3.55711 13.6178 10.3871 20.4378 18.9171 20.9678C20.0471 21.0378 20.9871 20.0978 20.9871 18.9678V17.2378C20.9971 16.2278 20.2371 15.3778 19.2271 15.2578Z" fill="url(#paint0_linear_12829_17057)"/>
<defs>
<linearGradient id="paint0_linear_12829_17057" x1="-5.95845" y1="11.9896" x2="12.0052" y2="29.9534" gradientUnits="userSpaceOnUse">
<stop stop-color="#3AD3F1"/>
<stop offset="1" stop-color="#1BA8DF"/>
</linearGradient>
</defs>
</svg>
