<svg width="16" height="16" viewBox="0 0 16 16" fill="#073B4C" xmlns="http://www.w3.org/2000/svg">
<path d="M7.33203 4.66927H8.66536V6.0026H7.33203V4.66927ZM7.33203 7.33594H8.66536V11.3359H7.33203V7.33594ZM7.9987 1.33594C4.3187 1.33594 1.33203 4.3226 1.33203 8.0026C1.33203 11.6826 4.3187 14.6693 7.9987 14.6693C11.6787 14.6693 14.6654 11.6826 14.6654 8.0026C14.6654 4.3226 11.6787 1.33594 7.9987 1.33594ZM7.9987 13.3359C5.0587 13.3359 2.66536 10.9426 2.66536 8.0026C2.66536 5.0626 5.0587 2.66927 7.9987 2.66927C10.9387 2.66927 13.332 5.0626 13.332 8.0026C13.332 10.9426 10.9387 13.3359 7.9987 13.3359Z"/>
</svg>
