<svg width="16" height="16" viewBox="0 0 16 16" fill="none" xmlns="http://www.w3.org/2000/svg">
<path fill-rule="evenodd" clip-rule="evenodd" d="M12.6667 1.33334C13.403 1.33334 14 1.9303 14 2.66668V13.3333C14 14.0697 13.403 14.6667 12.6667 14.6667H3.33333C2.59695 14.6667 2 14.0697 2 13.3333V2.66668C2 1.9303 2.59695 1.33334 3.33333 1.33334H12.6667ZM12.6654 2.6666H3.33203V13.3333H12.6654V2.6666ZM11.3333 4.66667C11.3333 5.03486 11.0349 5.33333 10.6667 5.33333C10.2985 5.33333 10 5.03486 10 4.66667C10 4.29848 10.2985 4 10.6667 4C11.0349 4 11.3333 4.29848 11.3333 4.66667ZM6.0013 4.66676C6.0013 5.03495 5.70283 5.33343 5.33464 5.33343C4.96645 5.33343 4.66797 5.03495 4.66797 4.66676C4.66797 4.29857 4.96645 4.00009 5.33464 4.00009C5.70283 4.00009 6.0013 4.29857 6.0013 4.66676ZM5.33464 6.6666C4.96645 6.6666 4.66797 6.96507 4.66797 7.33326C4.66797 7.70145 4.96644 7.99993 5.33463 7.99993H10.668C11.0362 7.99993 11.3346 7.70145 11.3346 7.33326C11.3346 6.96507 11.0362 6.6666 10.668 6.6666H5.33464ZM5.33464 9.33334C4.96645 9.33334 4.66797 9.63182 4.66797 10C4.66797 10.3682 4.96645 10.6667 5.33464 10.6667H8.0013C8.36949 10.6667 8.66797 10.3682 8.66797 10C8.66797 9.63182 8.36949 9.33334 8.0013 9.33334H5.33464ZM7.9987 5.33343C8.36689 5.33343 8.66536 5.03495 8.66536 4.66676C8.66536 4.29857 8.36689 4.00009 7.9987 4.00009C7.63051 4.00009 7.33203 4.29857 7.33203 4.66676C7.33203 5.03495 7.63051 5.33343 7.9987 5.33343Z" fill="url(#paint0_linear_25637_19216)"/>
<defs>
<linearGradient id="paint0_linear_25637_19216" x1="-4" y1="8.00001" x2="9.25967" y2="19.9337" gradientUnits="userSpaceOnUse">
<stop stop-color="#116D83"/>
<stop offset="1" stop-color="#073B4C"/>
</linearGradient>
</defs>
</svg>
