<svg width="24" height="24" viewBox="0 0 24 24" fill="white" xmlns="http://www.w3.org/2000/svg">
<path d="M14.0013 11.9992C14.0013 12.7392 13.6013 13.3792 13.0013 13.7192V20.9992C13.0013 21.5492 12.5513 21.9992 12.0013 21.9992C11.4513 21.9992 11.0013 21.5492 11.0013 20.9992V13.7192C10.4013 13.3692 10.0013 12.7392 10.0013 11.9992C10.0013 10.8992 10.9013 9.99922 12.0013 9.99922C13.1013 9.99922 14.0013 10.8992 14.0013 11.9992ZM10.7513 6.12922C8.4813 6.58922 6.6313 8.40922 6.1413 10.6792C5.7413 12.5392 6.2113 14.2992 7.2213 15.6192C7.5713 16.0692 8.2513 16.0892 8.6513 15.6892L8.7213 15.6192C9.0613 15.2792 9.0613 14.7492 8.7813 14.3692C8.1013 13.4692 7.8013 12.2692 8.1213 10.9992C8.4713 9.57922 9.6413 8.42922 11.0713 8.11922C13.6913 7.51922 16.0013 9.48922 16.0013 11.9992C16.0013 12.8692 15.7213 13.6692 15.2413 14.3192C14.9413 14.7292 14.9513 15.2892 15.3113 15.6492C15.7513 16.0892 16.4813 16.0192 16.8513 15.5092C17.5713 14.5292 18.0013 13.3092 18.0013 11.9992C18.0013 8.27922 14.6113 5.34922 10.7513 6.12922ZM10.8313 2.06922C6.3013 2.57922 2.6113 6.24922 2.0713 10.7792C1.7213 13.7292 2.6613 16.4492 4.3913 18.4792C4.7613 18.9092 5.4213 18.9392 5.8213 18.5392L5.8713 18.4892C6.2213 18.1392 6.2513 17.5692 5.9213 17.1892C4.3613 15.3592 3.5913 12.8192 4.2213 10.1292C4.9213 7.11922 7.4013 4.73922 10.4413 4.15922C15.5313 3.17922 20.0013 7.07922 20.0013 11.9992C20.0013 13.9592 19.2813 15.7592 18.1013 17.1592C17.7613 17.5592 17.7913 18.1392 18.1513 18.5092C18.5713 18.9292 19.2613 18.8992 19.6413 18.4392C21.1113 16.6992 22.0013 14.4592 22.0013 11.9992C22.0013 6.08922 16.8713 1.37922 10.8313 2.06922Z"/>
</svg>
