<svg width="16" height="16" viewBox="0 0 16 16" fill="none" xmlns="http://www.w3.org/2000/svg">
<path fill-rule="evenodd" clip-rule="evenodd" d="M11.332 2.66927H13.332V12.0026H11.332C10.9638 12.0026 10.6654 12.3011 10.6654 12.6693C10.6654 13.0375 10.9638 13.3359 11.332 13.3359H13.332C14.0684 13.3359 14.6654 12.739 14.6654 12.0026V2.66927C14.6654 1.93289 14.0684 1.33594 13.332 1.33594H11.332H5.9987H3.9987C3.26232 1.33594 2.66536 1.93289 2.66536 2.66927V8.66927C2.66536 9.03746 2.96384 9.33594 3.33203 9.33594C3.70022 9.33594 3.9987 9.03746 3.9987 8.66927V2.66927H5.9987V4.66927C5.9987 5.40565 6.59565 6.0026 7.33203 6.0026H9.9987C10.7351 6.0026 11.332 5.40565 11.332 4.66927V2.66927ZM9.9987 2.66927H7.33203V4.66927H9.9987V2.66927ZM8.66536 8.33594C8.66536 7.96775 8.96384 7.66927 9.33203 7.66927H11.6654C12.0336 7.66927 12.332 7.96775 12.332 8.33594V10.6693C12.332 11.0375 12.0336 11.3359 11.6654 11.3359C11.2972 11.3359 10.9987 11.0375 10.9987 10.6693V9.94541L7.80344 13.1407C7.54309 13.401 7.12098 13.401 6.86063 13.1407L5.33203 11.6121L2.4701 14.474C2.20975 14.7344 1.78764 14.7344 1.52729 14.474C1.26694 14.2137 1.26694 13.7915 1.52729 13.5312L4.86063 10.1979C5.12098 9.93752 5.54309 9.93752 5.80344 10.1979L7.33203 11.7265L10.0559 9.0026H9.33203C8.96384 9.0026 8.66536 8.70413 8.66536 8.33594Z" fill="url(#paint0_linear_12829_17093)"/>
<defs>
<linearGradient id="paint0_linear_12829_17093" x1="1.33203" y1="1.33594" x2="14.6654" y2="14.6693" gradientUnits="userSpaceOnUse">
<stop stop-color="#0B5E79"/>
<stop offset="1" stop-color="#073B4C"/>
</linearGradient>
</defs>
</svg>
