<svg width="24" height="24" viewBox="0 0 24 24" fill="#D2D2D2" xmlns="http://www.w3.org/2000/svg">
<path fill-rule="evenodd" clip-rule="evenodd" d="M18 10C18 5.58172 14.4183 2 10 2C5.58172 2 2 5.58172 2 10C2 14.4183 5.58172 18 10 18C11.8483 18 13.5502 17.3732 14.9047 16.3206L20.4276 21.8418L20.5218 21.925C20.9141 22.23 21.4813 22.2023 21.8418 21.8418C22.2323 21.4513 22.2323 20.8181 21.8418 20.4276L16.3206 14.9047L16.4943 14.6727C17.4418 13.3581 18 11.7442 18 10ZM4 10C4 6.68629 6.68629 4 10 4C13.3137 4 16 6.68629 16 10C16 13.3137 13.3137 16 10 16C6.68629 16 4 13.3137 4 10Z"/>
</svg>
