<svg width="16" height="16" viewBox="0 0 16 16" fill="none" xmlns="http://www.w3.org/2000/svg">
<path fill-rule="evenodd" clip-rule="evenodd" d="M12.6667 1.33331C13.403 1.33331 14 1.93027 14 2.66665V13.3333C14 14.0697 13.403 14.6666 12.6667 14.6666H3.33333C2.59695 14.6666 2 14.0697 2 13.3333V2.66665C2 1.93027 2.59695 1.33331 3.33333 1.33331H12.6667ZM12.6654 2.66656H3.33203V13.3332H12.6654V2.66656ZM4.66797 5.33323C4.66797 4.96504 4.96645 4.66656 5.33464 4.66656H10.668C11.0362 4.66656 11.3346 4.96504 11.3346 5.33323C11.3346 5.70142 11.0362 5.9999 10.668 5.9999H5.33463C4.96644 5.9999 4.66797 5.70142 4.66797 5.33323ZM5.33464 7.33331C4.96645 7.33331 4.66797 7.63179 4.66797 7.99998C4.66797 8.36817 4.96645 8.66665 5.33464 8.66665H8.0013C8.36949 8.66665 8.66797 8.36817 8.66797 7.99998C8.66797 7.63179 8.36949 7.33331 8.0013 7.33331H5.33464ZM5.33464 10.0001C4.96645 10.0001 4.66797 10.2985 4.66797 10.6667C4.66797 11.0349 4.96644 11.3334 5.33463 11.3334H10.668C11.0362 11.3334 11.3346 11.0349 11.3346 10.6667C11.3346 10.2985 11.0362 10.0001 10.668 10.0001H5.33464Z" fill="url(#paint0_linear_25637_19217)"/>
<defs>
<linearGradient id="paint0_linear_25637_19217" x1="-4" y1="7.99998" x2="9.25967" y2="19.9337" gradientUnits="userSpaceOnUse">
<stop stop-color="#116D83"/>
<stop offset="1" stop-color="#073B4C"/>
</linearGradient>
</defs>
</svg>
