<svg width="16" height="16" viewBox="0 0 16 16" fill="none" xmlns="http://www.w3.org/2000/svg">
<path fill-rule="evenodd" clip-rule="evenodd" d="M13.332 2.66146C13.332 1.92508 12.7351 1.32812 11.9987 1.32812H2.66536C1.92898 1.32812 1.33203 1.92508 1.33203 2.66146V11.9948C1.33203 12.7312 1.92898 13.3281 2.66536 13.3281H7.9987C8.36689 13.3281 8.66536 13.0296 8.66536 12.6615C8.66536 12.2933 8.36689 11.9948 7.9987 11.9948H2.66536V2.66146H11.9987V7.99479C11.9987 8.36298 12.2972 8.66146 12.6654 8.66146C13.0336 8.66146 13.332 8.36298 13.332 7.99479V2.66146ZM10.6667 11.9961C10.2985 11.9961 10 12.2946 10 12.6628C10 13.031 10.2985 13.3294 10.6667 13.3294H12V14.6628C12 15.031 12.2985 15.3294 12.6667 15.3294C13.0349 15.3294 13.3333 15.0309 13.3333 14.6628V13.3294H14.6667C15.0349 13.3294 15.3333 13.031 15.3333 12.6628C15.3333 12.2946 15.0349 11.9961 14.6667 11.9961H13.3333V10.6628C13.3333 10.2946 13.0349 9.99609 12.6667 9.99609C12.2985 9.99609 12 10.2946 12 10.6628V11.9961H10.6667ZM4.66667 3.99609C4.29848 3.99609 4 4.29457 4 4.66276C4 5.03095 4.29848 5.32943 4.66667 5.32943H10C10.3682 5.32943 10.6667 5.03095 10.6667 4.66276C10.6667 4.29457 10.3682 3.99609 10 3.99609H4.66667ZM4 7.32682C4 6.95863 4.29848 6.66016 4.66667 6.66016H10C10.3682 6.66016 10.6667 6.95863 10.6667 7.32682C10.6667 7.69501 10.3682 7.99349 10 7.99349H4.66667C4.29848 7.99349 4 7.69501 4 7.32682ZM4.66667 9.32812C4.29848 9.32812 4 9.6266 4 9.99479C4 10.363 4.29848 10.6615 4.66667 10.6615H6C6.36819 10.6615 6.66667 10.363 6.66667 9.99479C6.66667 9.6266 6.36819 9.32812 6 9.32812H4.66667Z" fill="url(#paint0_linear_12829_17076)"/>
<defs>
<linearGradient id="paint0_linear_12829_17076" x1="-5.66862" y1="8.32878" x2="8.33268" y2="22.3301" gradientUnits="userSpaceOnUse">
<stop stop-color="#116D83"/>
<stop offset="1" stop-color="#073B4C"/>
</linearGradient>
</defs>
</svg>
