<svg width="16" height="16" viewBox="0 0 16 16" fill="none" xmlns="http://www.w3.org/2000/svg">
<g clip-path="url(#clip0_25637_19224)">
<path fill-rule="evenodd" clip-rule="evenodd" d="M11.3334 4.66668C11.3334 2.82573 9.84097 1.33334 8.00002 1.33334C6.15907 1.33334 4.66669 2.82573 4.66669 4.66668C4.66669 5.30564 4.84647 5.90261 5.15821 6.40977C3.68594 7.10209 2.66669 8.59869 2.66669 10.3333V13.3333C2.66669 14.0697 3.26364 14.6667 4.00002 14.6667H12C12.7364 14.6667 13.3334 14.0697 13.3334 13.3333V10.3333C13.3334 8.59869 12.3141 7.10209 10.8418 6.40977C11.1536 5.90262 11.3334 5.30564 11.3334 4.66668ZM4.00329 10.1921C4.06377 8.88687 4.95836 7.79947 6.16626 7.45072C6.48145 7.65875 6.83406 7.81468 7.21181 7.90627L6.66669 10.4761L8.01151 11.9999L9.33335 10.4761L8.78823 7.90627C9.16598 7.81468 9.51859 7.65875 9.83378 7.45072C11.085 7.81197 12 8.9658 12 10.3333V13.3333H4.00002V10.3333L4.00329 10.1921ZM6.00002 4.66668C6.00002 3.56211 6.89545 2.66668 8.00002 2.66668C9.10459 2.66668 10 3.56211 10 4.66668C10 5.77125 9.10459 6.66668 8.00002 6.66668C6.89545 6.66668 6.00002 5.77125 6.00002 4.66668Z" fill="url(#paint0_linear_25637_19224)"/>
</g>
<defs>
<linearGradient id="paint0_linear_25637_19224" x1="-2.66665" y1="8.00001" x2="10.3415" y2="18.4065" gradientUnits="userSpaceOnUse">
<stop stop-color="#116D83"/>
<stop offset="1" stop-color="#073B4C"/>
</linearGradient>
<clipPath id="clip0_25637_19224">
<rect width="16" height="16" fill="white"/>
</clipPath>
</defs>
</svg>
