<svg width="16" height="16" viewBox="0 0 16 16" fill="none" xmlns="http://www.w3.org/2000/svg">
<path fill-rule="evenodd" clip-rule="evenodd" d="M13.332 2.66927C13.332 1.93289 12.7351 1.33594 11.9987 1.33594H2.66536C1.92898 1.33594 1.33203 1.93289 1.33203 2.66927V13.3359C1.33203 14.0723 1.92898 14.6693 2.66536 14.6693H9.9987C10.3669 14.6693 10.6654 14.3708 10.6654 14.0026C10.6654 13.6344 10.3669 13.3359 9.9987 13.3359H2.66536V2.66927H11.9987V6.66927C11.9987 7.03746 12.2972 7.33594 12.6654 7.33594C13.0336 7.33594 13.332 7.03746 13.332 6.66927V2.66927ZM12.6652 10.6692C12.297 10.6692 11.9985 10.9677 11.9985 11.3359V14.0025C11.9985 14.3707 12.297 14.6692 12.6652 14.6692C13.0334 14.6692 13.3319 14.3707 13.3319 14.0025V11.3359C13.3319 10.9677 13.0334 10.6692 12.6652 10.6692ZM11.9985 9.33586C11.9985 8.96767 12.297 8.66919 12.6652 8.66919C13.0334 8.66919 13.3319 8.96767 13.3319 9.33586C13.3319 9.70405 13.0334 10.0025 12.6652 10.0025C12.297 10.0025 11.9985 9.70405 11.9985 9.33586ZM4.6652 4.66919C4.29701 4.66919 3.99854 4.96767 3.99854 5.33586C3.99854 5.70405 4.29701 6.00252 4.6652 6.00252H9.99854C10.3667 6.00252 10.6652 5.70405 10.6652 5.33586C10.6652 4.96767 10.3667 4.66919 9.99854 4.66919H4.6652ZM3.99854 8.0026C3.99854 7.63441 4.29701 7.33594 4.6652 7.33594H9.99854C10.3667 7.33594 10.6652 7.63441 10.6652 8.0026C10.6652 8.37079 10.3667 8.66927 9.99854 8.66927H4.6652C4.29701 8.66927 3.99854 8.37079 3.99854 8.0026ZM4.6652 10.0027C4.29701 10.0027 3.99854 10.3012 3.99854 10.6694C3.99854 11.0375 4.29701 11.336 4.6652 11.336H5.99854C6.36672 11.336 6.6652 11.0375 6.6652 10.6694C6.6652 10.3012 6.36672 10.0027 5.99853 10.0027H4.6652Z" fill="url(#paint0_linear_12829_16984)"/>
<defs>
<linearGradient id="paint0_linear_12829_16984" x1="-4.66797" y1="8.0026" x2="8.5917" y2="19.9363" gradientUnits="userSpaceOnUse">
<stop stop-color="#116D83"/>
<stop offset="1" stop-color="#073B4C"/>
</linearGradient>
</defs>
</svg>
