<svg width="13" height="14" viewBox="0 0 13 14" fill="none" xmlns="http://www.w3.org/2000/svg">
<path fill-rule="evenodd" clip-rule="evenodd" d="M10.9987 0.335938C11.7351 0.335938 12.332 0.932891 12.332 1.66927V5.66927C12.332 6.03746 12.0336 6.33594 11.6654 6.33594C11.2972 6.33594 10.9987 6.03746 10.9987 5.66927V1.66927H1.66536V12.3359H8.9987C9.36689 12.3359 9.66536 12.6344 9.66536 13.0026C9.66536 13.3708 9.36689 13.6693 8.9987 13.6693H1.66536C0.928985 13.6693 0.332031 13.0723 0.332031 12.3359V1.66927C0.332031 0.932891 0.928985 0.335938 1.66536 0.335938H10.9987ZM10.9985 10.3359C10.9985 9.96767 11.297 9.66919 11.6652 9.66919C12.0334 9.66919 12.3319 9.96767 12.3319 10.3359V13.0025C12.3319 13.3707 12.0334 13.6692 11.6652 13.6692C11.297 13.6692 10.9985 13.3707 10.9985 13.0025V10.3359ZM11.6652 7.66919C11.297 7.66919 10.9985 7.96767 10.9985 8.33586C10.9985 8.70405 11.297 9.00252 11.6652 9.00252C12.0334 9.00252 12.3319 8.70405 12.3319 8.33586C12.3319 7.96767 12.0334 7.66919 11.6652 7.66919ZM4.99854 4.33586C4.99854 3.96767 5.29701 3.66919 5.6652 3.66919H8.99854C9.36673 3.66919 9.6652 3.96767 9.6652 4.33586C9.6652 4.70405 9.36672 5.00252 8.99854 5.00252H5.6652C5.29701 5.00252 4.99854 4.70405 4.99854 4.33586ZM5.6652 6.33594C5.29701 6.33594 4.99854 6.63441 4.99854 7.0026C4.99854 7.37079 5.29701 7.66927 5.6652 7.66927H8.99854C9.36672 7.66927 9.6652 7.37079 9.6652 7.0026C9.6652 6.63441 9.36673 6.33594 8.99854 6.33594H5.6652ZM4.99854 9.66935C4.99854 9.30116 5.29701 9.00269 5.6652 9.00269H9.00187C9.37006 9.00269 9.66854 9.30116 9.66854 9.66935C9.66854 10.0375 9.37006 10.336 9.00187 10.336H5.6652C5.29701 10.336 4.99854 10.0375 4.99854 9.66935ZM3.6652 5.00252C4.03339 5.00252 4.33187 4.70405 4.33187 4.33586C4.33187 3.96767 4.03339 3.66919 3.6652 3.66919C3.29701 3.66919 2.99854 3.96767 2.99854 4.33586C2.99854 4.70405 3.29701 5.00252 3.6652 5.00252ZM4.33187 7.0026C4.33187 7.37079 4.03339 7.66927 3.6652 7.66927C3.29701 7.66927 2.99854 7.37079 2.99854 7.0026C2.99854 6.63441 3.29701 6.33594 3.6652 6.33594C4.03339 6.33594 4.33187 6.63441 4.33187 7.0026ZM3.6652 10.336C4.03339 10.336 4.33187 10.0375 4.33187 9.66935C4.33187 9.30116 4.03339 9.00269 3.6652 9.00269C3.29701 9.00269 2.99854 9.30116 2.99854 9.66935C2.99854 10.0375 3.29701 10.336 3.6652 10.336Z" fill="url(#paint0_linear_12829_17030)"/>
<defs>
<linearGradient id="paint0_linear_12829_17030" x1="-5.66797" y1="7.0026" x2="7.5917" y2="18.9363" gradientUnits="userSpaceOnUse">
<stop stop-color="#116D83"/>
<stop offset="1" stop-color="#073B4C"/>
</linearGradient>
</defs>
</svg>
