<svg width="16" height="16" viewBox="0 0 16 16" fill="none" xmlns="http://www.w3.org/2000/svg">
<path d="M7.99976 3.6637L13.0198 12.337H2.97976L7.99976 3.6637ZM1.82642 11.6704C1.31309 12.557 1.95309 13.6704 2.97976 13.6704H13.0198C14.0464 13.6704 14.6864 12.557 14.1731 11.6704L9.15309 2.99703C8.63976 2.11036 7.35976 2.11036 6.84642 2.99703L1.82642 11.6704ZM7.33309 7.0037V8.33703C7.33309 8.7037 7.63309 9.0037 7.99976 9.0037C8.36642 9.0037 8.66642 8.7037 8.66642 8.33703V7.0037C8.66642 6.63703 8.36642 6.33703 7.99976 6.33703C7.63309 6.33703 7.33309 6.63703 7.33309 7.0037ZM7.33309 10.337H8.66642V11.6704H7.33309V10.337Z" fill="#F97316"/>
</svg>
